<svg xmlns="http://www.w3.org/2000/svg" width="288" height="216" viewBox="0 0 288 216" role="img" aria-label="Calc">
  <defs>
    <linearGradient id="g" x1="0" y1="0" x2="1" y2="1">
      <stop offset="0%" stop-color="#0f2942"/>
      <stop offset="100%" stop-color="#1a3a5c"/>
    </linearGradient>
  </defs>
  <rect width="288" height="216" rx="18" fill="url(#g)"/>
  <rect x="16" y="16" width="256" height="184" rx="14" fill="#fafaf7" opacity="0.96"/>
  <rect x="28" y="28" width="72" height="8" rx="4" fill="#0f2942"/>
  <text x="28" y="58" font-family="Georgia, serif" font-size="18" fill="#0f2942">Calc</text>
  <g transform="translate(96 78)" fill="none" stroke="#0f2942" stroke-width="4" stroke-linecap="round" stroke-linejoin="round">
    <rect x="20" y="8" width="56" height="80" rx="8"/><rect x="28" y="18" width="40" height="16" rx="3" fill="#0f2942" stroke="none" opacity="0.15"/><path d="M30 48h8M46 48h8M62 48h8M30 62h8M46 62h8M62 62h8"/>
  </g>
  <rect x="28" y="168" width="120" height="10" rx="5" fill="#c9932e" opacity="0.85"/>
  <rect x="28" y="184" width="80" height="8" rx="4" fill="#3d4f63" opacity="0.25"/>
</svg>