<svg xmlns="http://www.w3.org/2000/svg" width="288" height="216" viewBox="0 0 288 216" role="img" aria-label="Guia IRS">
  <defs>
    <linearGradient id="g" x1="0" y1="0" x2="1" y2="1">
      <stop offset="0%" stop-color="#0f2942"/>
      <stop offset="100%" stop-color="#1a3a5c"/>
    </linearGradient>
  </defs>
  <rect width="288" height="216" rx="18" fill="url(#g)"/>
  <rect x="16" y="16" width="256" height="184" rx="14" fill="#fafaf7" opacity="0.96"/>
  <rect x="28" y="28" width="72" height="8" rx="4" fill="#8a5f17"/>
  <text x="28" y="58" font-family="Georgia, serif" font-size="18" fill="#0f2942">Guia IRS</text>
  <g transform="translate(96 78)" fill="none" stroke="#8a5f17" stroke-width="4" stroke-linecap="round" stroke-linejoin="round">
    <path d="M20 8h50a8 8 0 0 1 8 8v64H28a8 8 0 0 1-8-8V8z"/><path d="M28 24h36M28 40h28M28 56h20"/>
  </g>
  <rect x="28" y="168" width="120" height="10" rx="5" fill="#c9932e" opacity="0.85"/>
  <rect x="28" y="184" width="80" height="8" rx="4" fill="#3d4f63" opacity="0.25"/>
</svg>